# xmcd
# 
# Track frame offsets:
#     150
#     10471
#     41427
#     57048
#     68873
#     83015
#     103432
#     111074
#     131989
#     150432
# 
# Disc length: 2277
# 
# Revision: 0
# Processed by: cddbd v1.5.2PL0 Copyright (c) Steve Scherf et al.
# Submitted via: fre:ac v1.0.31
# 
DISCID=8008e30a
DTITLE=Les Frères Ennemis - Enregistrements Publics Remasterisés HD
DYEAR=2004
DGENRE=
TTITLE0=La Tombola
TTITLE1=Contribution Trés Indirectes
TTITLE2=L'Hotel Du Berger
TTITLE3=Les Espions
TTITLE4=Le Duel
TTITLE5=L'Histoire De France
TTITLE6=Le Pistolet
TTITLE7=La Géographie
TTITLE8=Les Dépanneuses
TTITLE9=Repos D'Assuré
EXTD=
EXTT0=
EXTT1=
EXTT2=
EXTT3=
EXTT4=
EXTT5=
EXTT6=
EXTT7=
EXTT8=
EXTT9=
PLAYORDER=
